<svg width="28" height="27" viewBox="0 0 28 27" fill="none" xmlns="http://www.w3.org/2000/svg">
<path d="M26.0002 25.5002L20.2095 19.7095M20.2095 19.7095C21.2 18.719 21.9857 17.5431 22.5218 16.2489C23.0579 14.9547 23.3338 13.5676 23.3338 12.1668C23.3338 10.766 23.0579 9.37893 22.5218 8.08476C21.9857 6.79058 21.2 5.61467 20.2095 4.62415C19.219 3.63364 18.0431 2.84791 16.7489 2.31185C15.4547 1.77579 14.0676 1.49988 12.6668 1.49988C11.266 1.49988 9.87893 1.77579 8.58476 2.31185C7.29058 2.84791 6.11467 3.63364 5.12415 4.62415C3.12371 6.62459 1.99988 9.33777 1.99988 12.1668C1.99988 14.9959 3.12371 17.709 5.12415 19.7095C7.12459 21.7099 9.83777 22.8338 12.6668 22.8338C15.4959 22.8338 18.209 21.7099 20.2095 19.7095Z" stroke="black" stroke-width="2.5" stroke-linecap="round" stroke-linejoin="round"/>
</svg>
